<?xml version="1.0" standalone="no"?><!DOCTYPE svg PUBLIC "-//W3C//DTD SVG 1.1//EN" "http://www.w3.org/Graphics/SVG/1.1/DTD/svg11.dtd"><svg t="1700000000000" class="icon" viewBox="0 0 1024 1024" version="1.1" xmlns="http://www.w3.org/2000/svg" p-id="2000" width="16" height="16"><defs><style type="text/css"></style></defs><path d="M768 384v-85.333333c0-141.226667-114.773333-256-256-256s-256 114.773333-256 256V384H170.666667v554.666667h682.666666V384h-85.333333z m-384-85.333333c0-94.293333 76.373333-170.666667 170.666667-170.666667s170.666667 76.373333 170.666666 170.666667V384H384v-85.333333z m384 554.666666H256V469.333333h512v384z" p-id="2001" fill="#999999"></path><path d="M512 597.333333m-42.666667 0a42.666667 42.666667 0 1 0 85.333334 0 42.666667 42.666667 0 1 0-85.333334 0Z" p-id="2002" fill="#999999"></path><path d="M512 640v128h-42.666667v-128z" p-id="2003" fill="#999999"></path></svg>
